/* XPM */
static char *cairo_clock[] = {
/* columns rows colors chars-per-pixel */
"32 32 70 1",
"  c #565656",
". c #5A5A5A",
"X c #636363",
"o c #676A69",
"O c #6B6B6B",
"+ c #6E706F",
"@ c #6F7170",
"# c #737473",
"$ c #747877",
"% c #767B79",
"& c #7A7B7B",
"* c #7F8283",
"= c #838484",
"- c #868B8A",
"; c #8B8C8C",
": c #8B918E",
"> c #8D9392",
", c #849199",
"< c #8E9A9F",
"1 c #939394",
"2 c #939996",
"3 c #929799",
"4 c #959B9A",
"5 c #9C9C9C",
"6 c #99A09F",
"7 c #8F9EA6",
"8 c #9DA3A3",
"9 c #9DAAAF",
"0 c #A1A2A3",
"q c #A2A8A6",
"w c #A0A7A8",
"e c #A5ACAB",
"r c #AAACAC",
"t c #A7B1AF",
"y c #A9B1AE",
"u c #A2AEB2",
"i c #A9AFB0",
"p c #ACB4B3",
"a c #AFB8B6",
"s c #AFBBBD",
"d c #B1B3B4",
"f c #B1B9B7",
"g c #B1B7B8",
"h c #B5BCBB",
"j c #BCBDBE",
"k c #B7C0BE",
"l c #B9C1BF",
"z c #ACBCC4",
"x c #B8BFC0",
"c c #B4C2C6",
"v c #BCC4C3",
"b c #BEC8C6",
"n c #B6C4C8",
"m c #BDC7C8",
"M c #BDC8C9",
"N c #C3C5C5",
"B c #C1C9C7",
"V c #C4CCCA",
"C c #CACDCD",
"Z c #C7D0CD",
"A c #C8D1CE",
"S c #C7CFD0",
"D c #CCCFD0",
"F c #C5D0D0",
"G c #CCD5D2",
"H c #CFD8D4",
"J c #CFD8D8",
"K c #D0DAD7",
"L c #D1DADA",
"P c None",
/* pixels */
"PPPPPPPPPPPPPPPPPPPPPPPPPPPPPPPP",
"PPPPPPPPPPPoO##@OoX..PPPPPPPPPPP",
"PPPPPPPPP@=11:;;;;=&O..PPPPPPPPP",
"PPPPPPPO;52-*==;-:111=o..PPPPPPP",
"PPPPPP&5q*+%2qyt8pie880*. PPPPPP",
"PPPPP&05$+$2tkllxMMvxw8i4X.PPPPP",
"PPPP$01O%::kkllHGDFDVpgig0X PPPP",
"PPPO55+&2qkllVZZJJJJGDSmdj5X.PPP",
"PPP=0$$2yklBZZHHKLLLLJGDmgN; PPP",
"PPO5-o-eklBZGGHHKKLKLLJJDxgxo PP",
"PP&5@#-yjBAGHHHHKGJHLLLLGgiV1.PP",
"PX;;@:ykvZAGGGGHHHJJLLLKJFBmjX.P",
"Po1&%5plBZZAAHGGAKHAGKKKJJDxN& P",
"PO;#*qetlBZBZAGGAAAHGGGKJJDvD; P",
"PO;@:tffyrkkklbZkBHAGAFGJJGmC0.P",
"PO;#*8klZZlkket7<BZAAFFSSJDhV0.P",
"Po;#&8hvBZZZZBv<,9pbAZZAAGMaV0.P",
"PX==:efvbBBZZZvtbbknZMMAAMGZG5.P",
"P.*;>qflbBBBBZaaZMMncnMMbZZMH: P",
"P.#128phvvbBBvtvbbbbbcnvbbbbC& P",
"P.o:36rfvvBvbhtbbbbbbbcczmlNjX.P",
"PP.=53>pllvvvwhvbbvvvvbccueC5.PP",
"PP o536yfllvvavvvvvvlvvvlfpNO.PP",
"PPP &e8qyfllllkvvlvllvlvjhC1.PPP",
"PPP..1rweighxjcjkvkllllhfVrX PPP",
"PPPP.X0gew4phhhfkhkkk8pdNfO.PPPP",
"PPPPP.X0jr3epafaphhff6rCdO PPPPP",
"PPPPPP..;jxdewe84typdvN5X.PPPPPP",
"PPPPPPP..O0jNjhyefjNN0#..PPPPPPP",
"PPPPPPPPP. o=5rrre5=O. PPPPPPPPP",
"PPPPPPPPPPP.  .X.X.  PPPPPPPPPPP",
"PPPPPPPPPPPPPPPPPPPPPPPPPPPPPPPP"
};
